<?xml version="1.0" encoding="UTF-8" standalone="yes"?>
<svg width="512" height="512" viewBox="0 0 512 512" fill="none" version="1.2" baseProfile="tiny-ps" xmlns="http://www.w3.org/2000/svg">
  <title>Hikasami</title>
  <rect width="512" height="512" fill="#040404"/>
  <path fill-rule="evenodd" d="M293.724 182.473L290.641 180L287.281 182.021C287.258 182.034 287.202 182.066 287.118 182.111C286.949 182.202 286.656 182.356 286.23 182.562C285.377 182.974 283.993 183.597 282.016 184.345C278.063 185.842 271.737 187.847 262.557 189.688C251.231 191.959 241.969 195.253 234.617 199.659C230.41 197.99 225.955 195.92 222.156 194.051C219.61 192.798 217.41 191.66 215.848 190.836C215.068 190.425 214.449 190.093 214.028 189.866L213.55 189.606L213.432 189.541L209.596 187.426L206.579 190.552L210.66 194.512C206.579 190.552 206.579 190.552 206.579 190.552L206.57 190.562L206.559 190.573L206.53 190.603L206.448 190.69C206.384 190.76 206.298 190.853 206.193 190.969C205.983 191.202 205.697 191.528 205.347 191.946C204.647 192.783 203.692 193.991 202.588 195.56C200.382 198.695 197.571 203.29 195.025 209.262C190.262 220.436 186.46 236.369 189.222 256.407L189.043 256.431C187.766 256.603 186.754 256.809 186.022 256.984C185.656 257.072 185.361 257.152 185.137 257.217C185.026 257.249 184.932 257.277 184.856 257.301L184.757 257.333L184.718 257.346L184.701 257.352L184.693 257.354C184.693 257.354 184.685 257.357 186.503 262.752L184.685 257.357L180 258.944L182.103 270.042C197.368 350.598 311.396 353.418 330.604 273.714L330.686 273.308C332.005 265.374 332.218 259.095 331.819 251.892L331.274 242.044L323.535 247.124C325.171 233.18 323.315 221.827 319.027 212.212C313.238 199.234 303.329 190.176 293.724 182.473ZM217.15 204.273C219.351 205.356 221.837 206.541 224.427 207.701C224.264 207.871 224.103 208.043 223.944 208.216C216.064 216.767 212.896 227.277 212.58 238.858L212.554 238.936V258.858C208.155 257.533 204.186 256.777 200.7 256.393C197.836 237.914 201.291 223.541 205.47 213.737C207.658 208.605 210.053 204.706 211.87 202.124L212.141 201.742C213.556 202.476 215.262 203.344 217.15 204.273ZM319.536 263.38C319.536 263.38 320.418 263.025 320.491 262.749C320.326 265.427 320.016 268.18 319.515 271.235C313.327 296.619 295.808 312.123 275.655 317.961C273.746 310.941 270.539 304.506 266.616 298.707C281.164 288.869 295.873 279.061 307.382 271.425C312.03 268.341 319.536 263.38 319.536 263.38ZM310.53 255.697C314.453 238.396 312.824 226.203 308.657 216.861C304.497 207.534 297.545 200.412 289.401 193.629C288.466 194.038 287.347 194.5 286.031 194.999C281.464 196.728 274.537 198.899 264.785 200.855C248.287 204.163 238.239 209.485 232.287 215.944C228.847 219.678 226.553 224.033 225.249 229.114L230.521 232.55C237.037 225.945 246.089 221.844 256.098 221.844C266.108 221.844 275.159 225.945 281.675 232.55L299.642 220.841V231.334V262.91L301.117 261.931C304.574 259.638 307.741 257.541 310.53 255.697ZM271.855 238.949L256.098 249.217L240.342 238.949C244.614 235.376 250.107 233.232 256.098 233.232C262.089 233.232 267.583 235.376 271.855 238.949ZM223.913 241.826V263.232C227.863 265.078 232.05 267.368 236.447 270.196C243.5 274.734 252.089 281.322 259.59 289.727C269.404 283.088 279.311 276.45 288.283 270.467V241.826L256.098 262.8L223.913 241.826ZM198.68 267.634C196.532 267.434 194.691 267.417 193.181 267.486L193.263 267.916C200.478 305.992 233.636 323.648 264.477 320.185C259.26 302.298 243.236 288.095 230.312 279.781C216.731 271.045 205.878 268.303 198.68 267.634Z" fill="#FF176B"/>
</svg>
